<svg xmlns="http://www.w3.org/2000/svg" width="29.374" height="29.375" viewBox="0 0 29.374 29.375">
  <path id="_510859_options_preferences_settings_tools_icon_1_" data-name="510859_options_preferences_settings_tools_icon (1)" d="M29.661,14.561a8.294,8.294,0,0,1,1.165.083l-4.338,4.338,1.383,6.647,6.647,1.383,4.333-4.333a7.02,7.02,0,0,1-1.832,6.009,6.771,6.771,0,0,1-4.846,1.917,8.558,8.558,0,0,1-2.607-.416l-1.488-.476-8.209,8.21a3.036,3.036,0,0,1-4.293-4.293l8.21-8.209-.476-1.488a7.3,7.3,0,0,1,1.5-7.452,6.774,6.774,0,0,1,4.848-1.921m0-2.561A9.3,9.3,0,0,0,23,14.671a9.8,9.8,0,0,0-2.129,10.045l-7.1,7.1a5.6,5.6,0,1,0,7.915,7.915l7.105-7.105a11.121,11.121,0,0,0,3.387.539A9.294,9.294,0,0,0,38.831,30.5c3.2-3.2,3.491-8.317,1.042-12.464l-6.188,6.188-3.649-.759-.759-3.649,6.188-6.188A11.468,11.468,0,0,0,29.661,12Z" transform="translate(-12.128 -12)" fill="#4b5468"/>
</svg>
