<svg xmlns="http://www.w3.org/2000/svg" width="31.5" height="31.5" viewBox="0 0 31.5 31.5">
  <path id="Icon_carbon-router" data-name="Icon carbon-router" d="M23.625,7.875,18,2.25,12.375,7.875l1.585,1.6,2.915-2.893v8.047h2.25V6.518L22.04,9.471Zm0,20.25L18,33.75l-5.625-5.625,1.585-1.6,2.915,2.893V21.375h2.25v8.107l2.915-2.953ZM27,12.375,21.375,18,27,23.625l1.6-1.585L25.7,19.125H33.75v-2.25H25.643L28.6,13.96Zm-18,0L14.625,18,9,23.625,7.4,22.04,10.3,19.125H2.25v-2.25h8.107L7.4,13.96Z" transform="translate(-2.25 -2.25)"/>
</svg>
