<svg xmlns="http://www.w3.org/2000/svg" width="33" height="27" viewBox="0 0 33 27">
  <g id="Icon_akar-truck" data-name="Icon akar-truck" transform="translate(-1.5 -4.5)">
    <path id="Trazado_8340" data-name="Trazado 8340" d="M15,25.5h9V9a3,3,0,0,0-3-3H6A3,3,0,0,0,3,9V24a1.5,1.5,0,0,0,1.5,1.5H6M33,24V18a6,6,0,0,0-6-6H24V25.5h7.5A1.5,1.5,0,0,0,33,24ZM22.5,25.5a4.5,4.5,0,0,0,9,0ZM33,21H30" fill="none" stroke="#4b5468" stroke-linecap="round" stroke-linejoin="round" stroke-width="3"/>
    <path id="Trazado_8341" data-name="Trazado 8341" d="M15,25.5A4.5,4.5,0,1,1,10.5,21,4.5,4.5,0,0,1,15,25.5Z" fill="none" stroke="#4b5468" stroke-linecap="round" stroke-linejoin="round" stroke-width="3"/>
  </g>
</svg>
