<svg xmlns="http://www.w3.org/2000/svg" width="31.504" height="29.25" viewBox="0 0 31.504 29.25">
  <path id="Icon_hero-users" data-name="Icon hero-users" d="M22.5,28.692a14.123,14.123,0,0,0,10.119-.87,6.188,6.188,0,0,0-11.3-3.74m1.181,4.61v0a9.522,9.522,0,0,0-1.179-4.6M22.5,28.692v.159a18.584,18.584,0,0,1-19.125,0v-.163a9.563,9.563,0,0,1,17.946-4.6M18,9.563A5.063,5.063,0,1,1,12.938,4.5,5.063,5.063,0,0,1,18,9.563Zm12.375,3.375A3.938,3.938,0,1,1,26.438,9,3.937,3.937,0,0,1,30.375,12.938Z" transform="translate(-2.249 -3.375)" fill="none" stroke="#4b5468" stroke-linecap="round" stroke-linejoin="round" stroke-width="2.25"/>
</svg>
