<svg xmlns="http://www.w3.org/2000/svg" width="28.688" height="23.906" viewBox="0 0 28.688 23.906">
  <path id="Icon_ant-unordered-list-outlined" data-name="Icon ant-unordered-list-outlined" d="M32.063,6.75H11.531a.282.282,0,0,0-.281.281V9a.282.282,0,0,0,.281.281H32.063A.282.282,0,0,0,32.344,9V7.031A.282.282,0,0,0,32.063,6.75Zm0,9.984H11.531a.282.282,0,0,0-.281.281v1.969a.282.282,0,0,0,.281.281H32.063a.282.282,0,0,0,.281-.281V17.016A.282.282,0,0,0,32.063,16.734Zm0,9.984H11.531A.282.282,0,0,0,11.25,27v1.969a.282.282,0,0,0,.281.281H32.063a.282.282,0,0,0,.281-.281V27A.282.282,0,0,0,32.063,26.719ZM3.656,8.016A1.969,1.969,0,1,0,5.625,6.047,1.969,1.969,0,0,0,3.656,8.016Zm0,9.984a1.969,1.969,0,1,0,1.969-1.969A1.969,1.969,0,0,0,3.656,18Zm0,9.984a1.969,1.969,0,1,0,1.969-1.969,1.969,1.969,0,0,0-1.969,1.969Z" transform="translate(-3.656 -6.047)"/>
</svg>
