<svg xmlns="http://www.w3.org/2000/svg" width="32.626" height="24.753" viewBox="0 0 32.626 24.753">
  <path id="Icon_bootstrap-sort-down-alt" data-name="Icon bootstrap-sort-down-alt" d="M7.875,7.875a1.125,1.125,0,0,0-2.25,0V27.659L3.046,25.079a1.126,1.126,0,1,0-1.593,1.593l4.5,4.5.016.016a1.118,1.118,0,0,0,1.575-.014l4.5-4.5a1.126,1.126,0,0,0-1.591-1.593L7.875,27.659Zm9,1.125a1.125,1.125,0,0,1,0-2.25h2.25a1.125,1.125,0,0,1,0,2.25Zm0,6.75a1.125,1.125,0,0,1,0-2.25h6.75a1.125,1.125,0,0,1,0,2.25Zm0,6.75a1.125,1.125,0,0,1,0-2.25h11.25a1.125,1.125,0,0,1,0,2.25ZM15.75,28.125a1.125,1.125,0,0,0,1.125,1.125h15.75a1.125,1.125,0,0,0,0-2.25H16.875A1.125,1.125,0,0,0,15.75,28.125Z" transform="translate(-1.124 -6.75)" fill="#fff"/>
</svg>
