<svg xmlns="http://www.w3.org/2000/svg" width="21.18" height="21.245" viewBox="0 0 21.18 21.245">
  <g id="Grupo_19671" data-name="Grupo 19671" transform="translate(0.001)">
    <path id="Trazado_8365" data-name="Trazado 8365" d="M16.594,5.568l.576-.576h1.094c-.115,0,.518.633.518.633v9.382l-.633.518h-.978l-.576-.518Z" transform="translate(-7.213 -4.992)"/>
    <path id="Trazado_8366" data-name="Trazado 8366" d="M11.278,7.966a2.5,2.5,0,0,1-.165.717,8.649,8.649,0,0,0-3.951,7.282,8.738,8.738,0,0,0,8.615,8.551,8.435,8.435,0,0,0,8.4-8.662,8.6,8.6,0,0,0-3.786-7.172,5.745,5.745,0,0,1-.274-.662l.6-.938a.732.732,0,0,1,.6-.166,10.84,10.84,0,0,1,4.993,9.048,10.59,10.59,0,1,1-21.18,0,11.257,11.257,0,0,1,4.938-9.158c.329-.221.658.386.658.386Z" transform="translate(-5.133 -5.313)"/>
  </g>
</svg>
