<svg xmlns="http://www.w3.org/2000/svg" width="26.725" height="29.73" viewBox="0 0 26.725 29.73">
  <path id="_8726049_home_alt_icon" data-name="8726049_home_alt_icon" d="M28.24,10.92h0L19.332,3.11a4.454,4.454,0,0,0-5.939,0L4.485,10.92A4.454,4.454,0,0,0,3,14.275V27.252a4.454,4.454,0,0,0,4.454,4.454H25.271a4.454,4.454,0,0,0,4.454-4.454V14.261A4.454,4.454,0,0,0,28.24,10.92ZM19.332,28.737H13.393V21.313a1.485,1.485,0,0,1,1.485-1.485h2.969a1.485,1.485,0,0,1,1.485,1.485Zm7.424-1.485a1.485,1.485,0,0,1-1.485,1.485H22.3V21.313a4.454,4.454,0,0,0-4.454-4.454H14.878a4.454,4.454,0,0,0-4.454,4.454v7.424H7.454a1.485,1.485,0,0,1-1.485-1.485V14.261a1.485,1.485,0,0,1,.5-1.114l8.908-7.795a1.485,1.485,0,0,1,1.96,0l8.908,7.795a1.485,1.485,0,0,1,.5,1.114Z" transform="translate(-3 -1.976)" fill="#4b5468"/>
</svg>
