<svg id="Icon_clarity-drag-handle-line" data-name="Icon clarity-drag-handle-line" xmlns="http://www.w3.org/2000/svg" width="36" height="36" viewBox="0 0 36 36">
  <path id="Trazado_8373" data-name="Trazado 8373" d="M16.5,12A1.5,1.5,0,1,1,15,10.5,1.5,1.5,0,0,1,16.5,12Z"/>
  <path id="Trazado_8374" data-name="Trazado 8374" d="M16.5,24A1.5,1.5,0,1,1,15,22.5,1.5,1.5,0,0,1,16.5,24Z"/>
  <path id="Trazado_8375" data-name="Trazado 8375" d="M22.5,12A1.5,1.5,0,1,1,21,10.5,1.5,1.5,0,0,1,22.5,12Z"/>
  <path id="Trazado_8376" data-name="Trazado 8376" d="M22.5,24A1.5,1.5,0,1,1,21,22.5,1.5,1.5,0,0,1,22.5,24Z"/>
  <path id="Trazado_8377" data-name="Trazado 8377" d="M22.5,18A1.5,1.5,0,1,1,21,16.5,1.5,1.5,0,0,1,22.5,18Z"/>
  <path id="Trazado_8378" data-name="Trazado 8378" d="M16.5,18A1.5,1.5,0,1,1,15,16.5,1.5,1.5,0,0,1,16.5,18Z"/>
  <path id="Trazado_8379" data-name="Trazado 8379" d="M0,0H36V36H0Z" fill="none"/>
</svg>
